<svg xmlns="http://www.w3.org/2000/svg" xmlns:xlink="http://www.w3.org/1999/xlink" width="250" zoomAndPan="magnify" viewBox="0 0 187.5 37.5" height="50" preserveAspectRatio="xMidYMid meet" version="1.0"><defs><g/><clipPath id="72f323c5f9"><path d="M 9 14 L 25 14 L 25 33.304688 L 9 33.304688 Z M 9 14 " clip-rule="nonzero"/></clipPath><clipPath id="48bff4e11f"><path d="M 21 13 L 33.550781 13 L 33.550781 27 L 21 27 Z M 21 13 " clip-rule="nonzero"/></clipPath><clipPath id="68cd03db5b"><path d="M 20 13 L 33.550781 13 L 33.550781 27 L 20 27 Z M 20 13 " clip-rule="nonzero"/></clipPath><clipPath id="7848721966"><path d="M 4.6875 7 L 20 7 L 20 21 L 4.6875 21 Z M 4.6875 7 " clip-rule="nonzero"/></clipPath></defs><g fill="#114232" fill-opacity="1"><g transform="translate(34.683019, 26.612693)"><g><path d="M 9.40625 -18.140625 C 11.6875 -18.140625 13.5625 -17.675781 15.03125 -16.75 C 16.5 -15.832031 17.253906 -14.46875 17.296875 -12.65625 L 17.296875 -12.34375 L 11.921875 -12.34375 L 11.921875 -12.4375 C 11.921875 -12.957031 11.726562 -13.390625 11.34375 -13.734375 C 10.96875 -14.078125 10.390625 -14.25 9.609375 -14.25 C 8.847656 -14.25 8.265625 -14.132812 7.859375 -13.90625 C 7.460938 -13.6875 7.265625 -13.414062 7.265625 -13.09375 C 7.265625 -12.625 7.539062 -12.273438 8.09375 -12.046875 C 8.644531 -11.828125 9.53125 -11.597656 10.75 -11.359375 C 12.1875 -11.054688 13.367188 -10.742188 14.296875 -10.421875 C 15.222656 -10.109375 16.03125 -9.585938 16.71875 -8.859375 C 17.40625 -8.140625 17.757812 -7.15625 17.78125 -5.90625 C 17.78125 -3.800781 17.066406 -2.238281 15.640625 -1.21875 C 14.210938 -0.195312 12.304688 0.3125 9.921875 0.3125 C 7.140625 0.3125 4.972656 -0.148438 3.421875 -1.078125 C 1.878906 -2.015625 1.109375 -3.671875 1.109375 -6.046875 L 6.53125 -6.046875 C 6.53125 -5.140625 6.765625 -4.535156 7.234375 -4.234375 C 7.703125 -3.929688 8.425781 -3.78125 9.40625 -3.78125 C 10.132812 -3.78125 10.734375 -3.859375 11.203125 -4.015625 C 11.679688 -4.171875 11.921875 -4.492188 11.921875 -4.984375 C 11.921875 -5.410156 11.65625 -5.726562 11.125 -5.9375 C 10.601562 -6.15625 9.742188 -6.390625 8.546875 -6.640625 C 7.097656 -6.953125 5.898438 -7.273438 4.953125 -7.609375 C 4.003906 -7.941406 3.175781 -8.5 2.46875 -9.28125 C 1.757812 -10.0625 1.40625 -11.113281 1.40625 -12.4375 C 1.40625 -14.394531 2.160156 -15.832031 3.671875 -16.75 C 5.179688 -17.675781 7.09375 -18.140625 9.40625 -18.140625 Z M 9.40625 -18.140625 "/></g></g></g><g fill="#114232" fill-opacity="1"><g transform="translate(53.400684, 26.612693)"><g><path d="M 8.328125 -14 C 10.410156 -14 12.109375 -13.644531 13.421875 -12.9375 C 14.734375 -12.238281 15.390625 -11.109375 15.390625 -9.546875 L 15.390625 -4.203125 C 15.390625 -3.910156 15.457031 -3.664062 15.59375 -3.46875 C 15.738281 -3.28125 15.953125 -3.1875 16.234375 -3.1875 L 17.15625 -3.1875 L 17.15625 -0.203125 C 17.101562 -0.171875 16.96875 -0.113281 16.75 -0.03125 C 16.539062 0.0390625 16.234375 0.113281 15.828125 0.1875 C 15.429688 0.269531 14.976562 0.3125 14.46875 0.3125 C 13.457031 0.3125 12.628906 0.160156 11.984375 -0.140625 C 11.335938 -0.441406 10.894531 -0.863281 10.65625 -1.40625 C 10 -0.882812 9.265625 -0.46875 8.453125 -0.15625 C 7.640625 0.15625 6.6875 0.3125 5.59375 0.3125 C 2.382812 0.3125 0.78125 -0.96875 0.78125 -3.53125 C 0.78125 -4.851562 1.132812 -5.863281 1.84375 -6.5625 C 2.5625 -7.269531 3.59375 -7.753906 4.9375 -8.015625 C 6.289062 -8.273438 8.054688 -8.40625 10.234375 -8.40625 L 10.234375 -9.078125 C 10.234375 -9.609375 10.046875 -10.007812 9.671875 -10.28125 C 9.304688 -10.5625 8.832031 -10.703125 8.25 -10.703125 C 7.707031 -10.703125 7.238281 -10.609375 6.84375 -10.421875 C 6.457031 -10.234375 6.265625 -9.929688 6.265625 -9.515625 L 6.265625 -9.40625 L 1.1875 -9.40625 C 1.175781 -9.5 1.171875 -9.617188 1.171875 -9.765625 C 1.171875 -11.066406 1.785156 -12.097656 3.015625 -12.859375 C 4.253906 -13.617188 6.023438 -14 8.328125 -14 Z M 10.234375 -5.96875 C 8.765625 -5.96875 7.679688 -5.804688 6.984375 -5.484375 C 6.285156 -5.160156 5.9375 -4.734375 5.9375 -4.203125 C 5.9375 -3.335938 6.523438 -2.90625 7.703125 -2.90625 C 8.367188 -2.90625 8.957031 -3.082031 9.46875 -3.4375 C 9.976562 -3.800781 10.234375 -4.253906 10.234375 -4.796875 Z M 10.234375 -5.96875 "/></g></g></g><g fill="#114232" fill-opacity="1"><g transform="translate(70.69249, 26.612693)"><g><path d="M 5.1875 0 L 0 -13.6875 L 5.546875 -13.6875 L 8.0625 -5.15625 L 8.25 -5.15625 L 10.75 -13.6875 L 15.84375 -13.6875 L 10.609375 0 Z M 5.1875 0 "/></g></g></g><g fill="#114232" fill-opacity="1"><g transform="translate(86.5325, 26.612693)"><g><path d="M 5.1875 0 L 0 -13.6875 L 5.546875 -13.6875 L 8.0625 -5.15625 L 8.25 -5.15625 L 10.75 -13.6875 L 15.84375 -13.6875 L 10.609375 0 Z M 5.1875 0 "/></g></g></g><g fill="#114232" fill-opacity="1"><g transform="translate(102.372511, 26.612693)"><g><path d="M 10.96875 -0.421875 C 10.257812 1.503906 9.390625 2.960938 8.359375 3.953125 C 7.328125 4.941406 5.890625 5.4375 4.046875 5.4375 C 2.921875 5.4375 1.925781 5.285156 1.0625 4.984375 L 1.0625 1.890625 L 3.140625 1.890625 C 4.429688 1.890625 5.195312 1.257812 5.4375 0 L 0 -13.6875 L 5.546875 -13.6875 L 8.171875 -4.59375 L 8.34375 -4.59375 L 10.75 -13.6875 L 15.84375 -13.6875 Z M 10.96875 -0.421875 "/></g></g></g><g fill="#87a922" fill-opacity="1"><g transform="translate(118.219972, 26.612693)"><g><path d="M 17.234375 0 L 17.234375 -6.421875 C 17.234375 -7.222656 17.265625 -8.039062 17.328125 -8.875 C 17.390625 -9.71875 17.453125 -10.421875 17.515625 -10.984375 C 17.585938 -11.554688 17.632812 -11.921875 17.65625 -12.078125 L 17.546875 -12.078125 L 14.25 0 L 9.765625 0 L 6.453125 -12.046875 L 6.34375 -12.046875 C 6.363281 -11.898438 6.410156 -11.546875 6.484375 -10.984375 C 6.566406 -10.421875 6.640625 -9.71875 6.703125 -8.875 C 6.773438 -8.039062 6.8125 -7.222656 6.8125 -6.421875 L 6.8125 0 L 1.5625 0 L 1.5625 -17.828125 L 9.640625 -17.828125 L 12.34375 -7.546875 L 12.4375 -7.546875 L 15.109375 -17.828125 L 22.921875 -17.828125 L 22.921875 0 Z M 17.234375 0 "/></g></g></g><g fill="#87a922" fill-opacity="1"><g transform="translate(142.692922, 26.612693)"><g><path d="M 8.328125 -14 C 10.410156 -14 12.109375 -13.644531 13.421875 -12.9375 C 14.734375 -12.238281 15.390625 -11.109375 15.390625 -9.546875 L 15.390625 -4.203125 C 15.390625 -3.910156 15.457031 -3.664062 15.59375 -3.46875 C 15.738281 -3.28125 15.953125 -3.1875 16.234375 -3.1875 L 17.15625 -3.1875 L 17.15625 -0.203125 C 17.101562 -0.171875 16.96875 -0.113281 16.75 -0.03125 C 16.539062 0.0390625 16.234375 0.113281 15.828125 0.1875 C 15.429688 0.269531 14.976562 0.3125 14.46875 0.3125 C 13.457031 0.3125 12.628906 0.160156 11.984375 -0.140625 C 11.335938 -0.441406 10.894531 -0.863281 10.65625 -1.40625 C 10 -0.882812 9.265625 -0.46875 8.453125 -0.15625 C 7.640625 0.15625 6.6875 0.3125 5.59375 0.3125 C 2.382812 0.3125 0.78125 -0.96875 0.78125 -3.53125 C 0.78125 -4.851562 1.132812 -5.863281 1.84375 -6.5625 C 2.5625 -7.269531 3.59375 -7.753906 4.9375 -8.015625 C 6.289062 -8.273438 8.054688 -8.40625 10.234375 -8.40625 L 10.234375 -9.078125 C 10.234375 -9.609375 10.046875 -10.007812 9.671875 -10.28125 C 9.304688 -10.5625 8.832031 -10.703125 8.25 -10.703125 C 7.707031 -10.703125 7.238281 -10.609375 6.84375 -10.421875 C 6.457031 -10.234375 6.265625 -9.929688 6.265625 -9.515625 L 6.265625 -9.40625 L 1.1875 -9.40625 C 1.175781 -9.5 1.171875 -9.617188 1.171875 -9.765625 C 1.171875 -11.066406 1.785156 -12.097656 3.015625 -12.859375 C 4.253906 -13.617188 6.023438 -14 8.328125 -14 Z M 10.234375 -5.96875 C 8.765625 -5.96875 7.679688 -5.804688 6.984375 -5.484375 C 6.285156 -5.160156 5.9375 -4.734375 5.9375 -4.203125 C 5.9375 -3.335938 6.523438 -2.90625 7.703125 -2.90625 C 8.367188 -2.90625 8.957031 -3.082031 9.46875 -3.4375 C 9.976562 -3.800781 10.234375 -4.253906 10.234375 -4.796875 Z M 10.234375 -5.96875 "/></g></g></g><g fill="#87a922" fill-opacity="1"><g transform="translate(159.984728, 26.612693)"><g><path d="M 9.875 -14.03125 C 10.269531 -14.03125 10.625 -13.976562 10.9375 -13.875 C 11.25 -13.78125 11.40625 -13.726562 11.40625 -13.71875 L 11.40625 -9.390625 L 9.75 -9.390625 C 8.675781 -9.390625 7.898438 -9.109375 7.421875 -8.546875 C 6.953125 -7.992188 6.71875 -7.175781 6.71875 -6.09375 L 6.71875 0 L 1.5625 0 L 1.5625 -13.6875 L 5.78125 -13.6875 L 6.125 -11.609375 C 6.425781 -12.410156 6.914062 -13.015625 7.59375 -13.421875 C 8.269531 -13.828125 9.03125 -14.03125 9.875 -14.03125 Z M 9.875 -14.03125 "/></g></g></g><g fill="#87a922" fill-opacity="1"><g transform="translate(171.495312, 26.612693)"><g><path d="M 10.6875 -13.6875 L 10.6875 -10.1875 L 7.78125 -10.1875 L 7.78125 -4.984375 C 7.78125 -4.359375 7.882812 -3.898438 8.09375 -3.609375 C 8.300781 -3.328125 8.679688 -3.1875 9.234375 -3.1875 L 10.6875 -3.1875 L 10.6875 -0.15625 C 10.269531 -0.0195312 9.734375 0.0859375 9.078125 0.171875 C 8.421875 0.265625 7.847656 0.3125 7.359375 0.3125 C 5.835938 0.3125 4.664062 0.0351562 3.84375 -0.515625 C 3.03125 -1.066406 2.625 -2.007812 2.625 -3.34375 L 2.625 -10.1875 L 0.703125 -10.1875 L 0.703125 -13.6875 L 2.828125 -13.6875 L 3.9375 -17.828125 L 7.78125 -17.828125 L 7.78125 -13.6875 Z M 10.6875 -13.6875 "/></g></g></g><path fill="#cadb79" d="M 23.121094 18.628906 C 22.828125 18.691406 22.609375 18.929688 22.414062 19.15625 C 20.898438 20.867188 19.371094 22.578125 17.859375 24.292969 C 18.742188 21.566406 19.625 18.832031 20.507812 16.105469 C 19.84375 15.589844 18.785156 15.632812 18.164062 16.214844 C 17.878906 16.484375 17.695312 16.828125 17.507812 17.171875 C 16.59375 18.929688 16.070312 20.480469 15.21875 22.277344 C 15.40625 20.480469 15.132812 18.894531 15.101562 17.097656 C 15.089844 16.460938 14.992188 15.707031 14.414062 15.4375 C 14.097656 15.289062 13.878906 14.726562 13.542969 14.855469 C 12.757812 15.160156 11.601562 15.792969 11.917969 16.570312 C 12.253906 17.375 12.375 18.226562 12.84375 19.550781 C 13.421875 21.144531 13.203125 22.824219 12.898438 24.496094 C 12.59375 26.164062 10.730469 28.320312 10.25 29.945312 C 10.054688 30.601562 10.074219 31.410156 11.121094 32.183594 C 11.667969 32.59375 12.671875 32.886719 13.355469 32.894531 C 14.457031 32.90625 15.210938 32.054688 15.644531 31.453125 C 17.183594 29.320312 17.367188 29.117188 18.394531 27.5 C 19.800781 25.28125 21.488281 23.234375 23.253906 21.277344 C 23.65625 20.835938 24.070312 20.363281 24.136719 19.769531 C 24.203125 19.175781 23.710938 18.507812 23.125 18.628906 Z M 23.121094 18.628906 " fill-opacity="1" fill-rule="nonzero"/><g clip-path="url(#72f323c5f9)"><path fill="#383838" d="M 12.449219 19.660156 C 12.734375 20.457031 12.820312 21.253906 12.789062 22.09375 C 12.757812 22.914062 12.660156 23.710938 12.484375 24.507812 C 12.449219 24.644531 12.417969 24.777344 12.363281 24.914062 C 12.34375 24.980469 12.320312 25.042969 12.289062 25.121094 C 12.277344 25.152344 12.265625 25.183594 12.242188 25.214844 C 12.234375 25.238281 12.1875 25.335938 12.222656 25.269531 C 12.089844 25.574219 11.9375 25.863281 11.785156 26.144531 C 11.449219 26.757812 11.078125 27.339844 10.730469 27.941406 C 10.402344 28.5 10.085938 29.082031 9.878906 29.695312 C 9.691406 30.269531 9.683594 30.851562 9.921875 31.410156 C 10.214844 32.066406 10.847656 32.570312 11.492188 32.851562 C 11.832031 33.003906 12.179688 33.121094 12.550781 33.1875 C 12.898438 33.261719 13.257812 33.304688 13.605469 33.261719 C 14.316406 33.175781 14.925781 32.820312 15.417969 32.324219 C 15.894531 31.839844 16.265625 31.246094 16.667969 30.699219 C 17.246094 29.902344 17.824219 29.105469 18.347656 28.273438 C 18.753906 27.652344 19.144531 27.027344 19.570312 26.414062 C 20.039062 25.734375 20.539062 25.066406 21.050781 24.429688 C 21.574219 23.773438 22.109375 23.136719 22.652344 22.515625 C 22.9375 22.191406 23.222656 21.878906 23.503906 21.554688 C 23.765625 21.277344 24.027344 20.984375 24.222656 20.652344 C 24.421875 20.328125 24.574219 19.917969 24.53125 19.542969 C 24.496094 19.175781 24.34375 18.820312 24.070312 18.5625 C 23.789062 18.28125 23.40625 18.152344 23.015625 18.226562 C 22.609375 18.304688 22.304688 18.625 22.042969 18.917969 C 20.835938 20.273438 19.625 21.640625 18.425781 23 C 18.128906 23.332031 17.835938 23.65625 17.542969 23.988281 C 17.769531 24.117188 18 24.246094 18.226562 24.378906 C 18.914062 22.257812 19.601562 20.132812 20.289062 18.011719 C 20.484375 17.410156 20.679688 16.808594 20.878906 16.191406 C 20.941406 16.007812 20.832031 15.847656 20.691406 15.738281 C 20.222656 15.375 19.601562 15.277344 19.011719 15.351562 C 18.382812 15.4375 17.867188 15.804688 17.507812 16.3125 C 17.324219 16.570312 17.179688 16.859375 17.039062 17.140625 C 16.875 17.453125 16.734375 17.765625 16.582031 18.078125 C 16.296875 18.703125 16.027344 19.328125 15.765625 19.960938 C 15.46875 20.660156 15.175781 21.351562 14.847656 22.050781 C 15.097656 22.117188 15.359375 22.191406 15.609375 22.253906 C 15.730469 21.070312 15.644531 19.875 15.566406 18.691406 C 15.523438 18.109375 15.511719 17.527344 15.492188 16.945312 C 15.480469 16.484375 15.414062 16 15.175781 15.601562 C 15.054688 15.394531 14.878906 15.210938 14.664062 15.09375 C 14.628906 15.074219 14.585938 15.050781 14.542969 15.027344 C 14.46875 14.984375 14.574219 15.074219 14.542969 15.027344 L 14.5 14.984375 C 14.421875 14.921875 14.359375 14.835938 14.292969 14.769531 C 14.117188 14.585938 13.921875 14.4375 13.660156 14.414062 C 13.421875 14.394531 13.179688 14.542969 12.972656 14.640625 C 12.242188 14.976562 11.175781 15.675781 11.503906 16.621094 C 11.65625 17.054688 11.796875 17.484375 11.917969 17.9375 C 12.089844 18.519531 12.253906 19.089844 12.449219 19.660156 C 12.527344 19.863281 12.734375 20.003906 12.953125 19.9375 C 13.160156 19.886719 13.3125 19.648438 13.234375 19.445312 C 12.941406 18.59375 12.746094 17.710938 12.460938 16.859375 C 12.40625 16.6875 12.332031 16.515625 12.277344 16.332031 C 12.253906 16.234375 12.265625 16.386719 12.277344 16.289062 L 12.277344 16.234375 C 12.277344 16.179688 12.253906 16.300781 12.277344 16.257812 C 12.289062 16.222656 12.296875 16.191406 12.296875 16.160156 C 12.320312 16.09375 12.296875 16.160156 12.289062 16.171875 C 12.296875 16.148438 12.308594 16.117188 12.332031 16.09375 C 12.351562 16.0625 12.375 16.03125 12.398438 15.988281 C 12.351562 16.050781 12.40625 15.976562 12.429688 15.957031 C 12.496094 15.878906 12.570312 15.816406 12.648438 15.761719 C 12.703125 15.707031 12.667969 15.75 12.648438 15.761719 C 12.667969 15.75 12.691406 15.726562 12.703125 15.71875 C 12.746094 15.683594 12.789062 15.664062 12.820312 15.632812 C 12.910156 15.578125 13.007812 15.523438 13.09375 15.46875 C 13.179688 15.425781 13.257812 15.382812 13.34375 15.339844 C 13.390625 15.320312 13.433594 15.296875 13.476562 15.277344 C 13.496094 15.265625 13.519531 15.253906 13.542969 15.242188 C 13.640625 15.199219 13.496094 15.265625 13.550781 15.234375 C 13.574219 15.222656 13.597656 15.222656 13.617188 15.210938 C 13.664062 15.1875 13.671875 15.210938 13.628906 15.199219 L 13.597656 15.199219 C 13.617188 15.199219 13.617188 15.199219 13.597656 15.199219 L 13.5625 15.199219 C 13.585938 15.207031 13.585938 15.207031 13.5625 15.199219 C 13.542969 15.210938 13.53125 15.179688 13.574219 15.210938 C 13.617188 15.242188 13.519531 15.15625 13.5625 15.199219 L 13.660156 15.296875 C 13.804688 15.4375 13.921875 15.597656 14.097656 15.707031 C 14.171875 15.75 14.25 15.792969 14.328125 15.835938 C 14.261719 15.78125 14.347656 15.867188 14.371094 15.878906 C 14.382812 15.890625 14.402344 15.910156 14.414062 15.933594 C 14.382812 15.890625 14.402344 15.910156 14.425781 15.945312 C 14.445312 15.988281 14.46875 16.019531 14.492188 16.0625 C 14.5 16.082031 14.546875 16.179688 14.511719 16.105469 C 14.554688 16.203125 14.578125 16.308594 14.597656 16.417969 C 14.609375 16.460938 14.621094 16.503906 14.621094 16.546875 C 14.621094 16.558594 14.632812 16.632812 14.632812 16.578125 C 14.621094 16.523438 14.632812 16.601562 14.632812 16.621094 C 14.644531 16.730469 14.65625 16.828125 14.65625 16.933594 C 14.675781 17.472656 14.6875 18.011719 14.71875 18.550781 C 14.796875 19.789062 14.894531 21.027344 14.773438 22.265625 C 14.730469 22.652344 15.363281 22.824219 15.539062 22.46875 C 16.09375 21.296875 16.5625 20.089844 17.074219 18.925781 C 17.335938 18.34375 17.609375 17.765625 17.914062 17.195312 C 18.054688 16.933594 18.1875 16.710938 18.371094 16.527344 C 18.394531 16.503906 18.417969 16.484375 18.4375 16.472656 C 18.4375 16.472656 18.523438 16.398438 18.480469 16.429688 C 18.4375 16.460938 18.535156 16.386719 18.535156 16.394531 C 18.558594 16.386719 18.582031 16.363281 18.601562 16.351562 C 18.65625 16.320312 18.710938 16.289062 18.765625 16.265625 C 18.777344 16.257812 18.84375 16.234375 18.777344 16.265625 C 18.808594 16.257812 18.84375 16.246094 18.886719 16.222656 C 18.953125 16.203125 19.015625 16.179688 19.082031 16.167969 C 19.117188 16.160156 19.148438 16.160156 19.179688 16.148438 C 19.09375 16.160156 19.214844 16.148438 19.222656 16.148438 C 19.289062 16.148438 19.367188 16.136719 19.429688 16.148438 L 19.527344 16.148438 C 19.550781 16.148438 19.660156 16.167969 19.574219 16.148438 C 19.636719 16.160156 19.691406 16.167969 19.757812 16.191406 C 19.792969 16.203125 19.824219 16.210938 19.84375 16.210938 C 19.855469 16.210938 19.988281 16.265625 19.910156 16.234375 C 20.042969 16.289062 20.160156 16.363281 20.269531 16.449219 C 20.203125 16.296875 20.152344 16.148438 20.085938 15.996094 C 19.398438 18.117188 18.710938 20.238281 18.023438 22.359375 C 17.828125 22.964844 17.632812 23.566406 17.4375 24.179688 C 17.316406 24.558594 17.851562 24.882812 18.121094 24.570312 C 19.277344 23.265625 20.445312 21.953125 21.601562 20.648438 C 21.894531 20.316406 22.199219 19.972656 22.496094 19.636719 C 22.613281 19.507812 22.722656 19.367188 22.855469 19.25 C 22.886719 19.214844 22.917969 19.183594 22.953125 19.164062 C 22.953125 19.164062 23.058594 19.089844 23.007812 19.121094 C 23.039062 19.097656 23.082031 19.078125 23.113281 19.054688 C 23.160156 19.035156 23.171875 19.035156 23.136719 19.042969 C 23.160156 19.035156 23.191406 19.023438 23.222656 19.023438 C 23.136719 19.042969 23.222656 19.023438 23.257812 19.023438 C 23.289062 19.023438 23.375 19.042969 23.277344 19.023438 C 23.300781 19.035156 23.332031 19.042969 23.355469 19.042969 C 23.398438 19.042969 23.289062 19 23.367188 19.042969 C 23.398438 19.066406 23.421875 19.078125 23.453125 19.097656 C 23.539062 19.152344 23.410156 19.042969 23.472656 19.121094 L 23.550781 19.195312 C 23.574219 19.214844 23.574219 19.214844 23.550781 19.195312 C 23.5625 19.214844 23.582031 19.238281 23.59375 19.25 C 23.617188 19.28125 23.628906 19.3125 23.648438 19.347656 C 23.703125 19.441406 23.628906 19.28125 23.671875 19.378906 C 23.691406 19.441406 23.714844 19.519531 23.726562 19.582031 C 23.714844 19.496094 23.726562 19.65625 23.726562 19.691406 C 23.726562 19.691406 23.714844 19.808594 23.726562 19.734375 C 23.714844 19.789062 23.703125 19.839844 23.683594 19.894531 C 23.605469 20.164062 23.398438 20.453125 23.214844 20.671875 C 22.953125 20.972656 22.679688 21.261719 22.417969 21.5625 C 21.882812 22.167969 21.359375 22.769531 20.859375 23.394531 C 19.824219 24.65625 18.863281 25.96875 17.992188 27.335938 C 17.492188 28.121094 16.976562 28.898438 16.433594 29.652344 C 16.050781 30.179688 15.660156 30.71875 15.277344 31.246094 C 15.242188 31.289062 15.199219 31.339844 15.167969 31.386719 C 15.234375 31.300781 15.167969 31.386719 15.15625 31.40625 C 15.136719 31.429688 15.113281 31.460938 15.089844 31.480469 C 14.992188 31.601562 14.894531 31.707031 14.785156 31.804688 C 14.742188 31.847656 14.699219 31.890625 14.65625 31.921875 C 14.632812 31.945312 14.601562 31.96875 14.566406 32 C 14.558594 32 14.46875 32.074219 14.535156 32.03125 C 14.40625 32.128906 14.273438 32.214844 14.121094 32.289062 C 14.023438 32.34375 13.957031 32.363281 13.792969 32.40625 C 13.71875 32.429688 13.640625 32.441406 13.566406 32.449219 C 13.652344 32.441406 13.519531 32.449219 13.511719 32.449219 L 13.347656 32.449219 C 13.269531 32.449219 13.203125 32.449219 13.128906 32.441406 C 13.097656 32.441406 13.054688 32.429688 13.019531 32.429688 C 13.105469 32.441406 12.988281 32.417969 12.976562 32.417969 C 12.8125 32.398438 12.648438 32.355469 12.496094 32.3125 C 12.15625 32.226562 11.917969 32.136719 11.636719 31.988281 C 11.339844 31.824219 11.078125 31.609375 10.859375 31.351562 C 10.90625 31.40625 10.828125 31.308594 10.828125 31.308594 C 10.816406 31.289062 10.796875 31.265625 10.785156 31.246094 C 10.742188 31.179688 10.707031 31.125 10.675781 31.050781 C 10.664062 31.039062 10.621094 30.933594 10.664062 31.019531 C 10.652344 30.984375 10.644531 30.953125 10.632812 30.921875 C 10.609375 30.847656 10.589844 30.78125 10.578125 30.707031 C 10.578125 30.683594 10.566406 30.585938 10.578125 30.695312 C 10.578125 30.664062 10.566406 30.628906 10.566406 30.609375 L 10.566406 30.457031 C 10.566406 30.402344 10.578125 30.339844 10.578125 30.285156 C 10.566406 30.402344 10.578125 30.308594 10.578125 30.273438 C 10.589844 30.242188 10.589844 30.199219 10.597656 30.167969 C 10.621094 30.050781 10.664062 29.929688 10.695312 29.824219 C 10.71875 29.769531 10.742188 29.703125 10.761719 29.652344 C 10.773438 29.628906 10.785156 29.597656 10.796875 29.574219 C 10.808594 29.546875 10.808594 29.546875 10.796875 29.574219 C 10.804688 29.554688 10.816406 29.53125 10.828125 29.511719 C 10.960938 29.230469 11.101562 28.949219 11.242188 28.679688 C 11.875 27.539062 12.660156 26.453125 13.105469 25.222656 C 13.214844 24.933594 13.28125 24.632812 13.335938 24.320312 C 13.410156 23.898438 13.476562 23.480469 13.519531 23.050781 C 13.617188 22.230469 13.640625 21.410156 13.519531 20.59375 C 13.464844 20.195312 13.367188 19.796875 13.226562 19.421875 C 13.148438 19.214844 12.941406 19.074219 12.726562 19.140625 C 12.527344 19.214844 12.375 19.453125 12.453125 19.65625 Z M 12.449219 19.660156 " fill-opacity="1" fill-rule="nonzero"/></g><g clip-path="url(#48bff4e11f)"><path fill="#80b141" d="M 32.550781 19.640625 C 32.40625 19.488281 32.234375 19.363281 32.050781 19.273438 C 32.035156 19.285156 32.023438 19.296875 32.007812 19.304688 L 31.820312 19.1875 C 31.898438 19.207031 31.976562 19.238281 32.050781 19.273438 C 32.753906 18.816406 32.882812 17.777344 32.617188 16.925781 C 32.519531 16.601562 32.378906 16.289062 32.125 16.0625 C 31.710938 15.6875 31.101562 15.621094 30.609375 15.785156 C 30.109375 15.945312 29.71875 16.300781 29.359375 16.675781 C 29.25 15.75 29.042969 14.726562 28.289062 14.148438 C 27.886719 13.835938 27.363281 13.707031 26.859375 13.726562 C 26.359375 13.75 25.890625 13.898438 25.445312 14.105469 C 24.582031 14.492188 23.765625 15.09375 23.417969 16 C 23.066406 16.902344 23.328125 18.132812 24.179688 18.667969 C 23.21875 18.324219 22.121094 18.753906 21.628906 19.59375 C 21.140625 20.4375 21.226562 21.597656 21.769531 22.480469 C 21.945312 22.773438 22.175781 23.03125 22.445312 23.226562 C 23.15625 23.71875 24.191406 23.589844 24.691406 22.945312 C 24.726562 23.839844 24.789062 24.820312 25.367188 25.53125 C 26.109375 26.445312 27.484375 26.585938 28.472656 26.121094 C 29.246094 25.765625 29.859375 25.101562 30.164062 24.292969 C 30.285156 23.980469 30.359375 23.632812 30.25 23.300781 C 31.070312 23.429688 31.875 23.054688 32.398438 22.460938 C 32.726562 22.082031 32.964844 21.621094 33.019531 21.101562 C 33.0625 20.597656 32.910156 20.039062 32.550781 19.640625 Z M 32.550781 19.640625 " fill-opacity="1" fill-rule="evenodd"/></g><g clip-path="url(#68cd03db5b)"><path fill="#383838" d="M 31.734375 19.339844 C 32.574219 19.832031 32.964844 20.714844 32.5625 21.640625 C 32.191406 22.492188 31.285156 23.117188 30.328125 22.988281 C 30.089844 22.957031 29.878906 23.117188 29.933594 23.375 C 30.089844 24.109375 29.542969 24.894531 29.019531 25.355469 C 28.519531 25.800781 27.863281 26.046875 27.175781 26.023438 C 25.445312 25.960938 25.085938 24.34375 25.019531 22.933594 C 25.007812 22.664062 24.636719 22.449219 24.429688 22.699219 C 24.003906 23.191406 23.308594 23.320312 22.730469 23.011719 C 22.085938 22.65625 21.714844 21.835938 21.640625 21.136719 C 21.488281 19.746094 22.632812 18.519531 24.058594 18.992188 C 24.453125 19.121094 24.625 18.585938 24.320312 18.378906 C 23.644531 17.917969 23.417969 16.980469 23.667969 16.226562 C 23.917969 15.453125 24.59375 14.902344 25.300781 14.535156 C 26.097656 14.125 27.132812 13.8125 27.953125 14.339844 C 28.714844 14.835938 28.886719 15.859375 28.988281 16.6875 C 29.019531 16.957031 29.335938 17.152344 29.554688 16.925781 C 30.207031 16.246094 31.449219 15.472656 32.09375 16.636719 C 32.496094 17.347656 32.539062 18.53125 31.800781 19.035156 C 31.449219 19.273438 31.777344 19.832031 32.125 19.597656 C 33.214844 18.851562 33.269531 17.207031 32.574219 16.160156 C 32.191406 15.589844 31.539062 15.320312 30.863281 15.398438 C 30.132812 15.472656 29.554688 15.957031 29.0625 16.460938 C 29.25 16.539062 29.445312 16.613281 29.628906 16.699219 C 29.5 15.644531 29.269531 14.480469 28.332031 13.835938 C 27.285156 13.125 25.96875 13.4375 24.933594 13.976562 C 23.996094 14.457031 23.121094 15.265625 22.914062 16.34375 C 22.71875 17.355469 23.089844 18.402344 23.949219 18.992188 C 24.039062 18.789062 24.125 18.585938 24.210938 18.378906 C 22.238281 17.746094 20.667969 19.523438 20.953125 21.394531 C 21.09375 22.320312 21.640625 23.3125 22.535156 23.710938 C 23.339844 24.066406 24.3125 23.871094 24.898438 23.214844 C 24.703125 23.140625 24.507812 23.054688 24.3125 22.980469 C 24.34375 23.949219 24.410156 24.992188 25.050781 25.777344 C 25.597656 26.445312 26.449219 26.78125 27.308594 26.757812 C 28.976562 26.714844 30.960938 25.027344 30.523438 23.25 C 30.425781 23.378906 30.320312 23.519531 30.21875 23.648438 C 31.484375 23.785156 32.695312 22.957031 33.140625 21.792969 C 33.542969 20.738281 33.128906 19.222656 31.855469 19.046875 C 31.679688 18.984375 31.539062 19.222656 31.734375 19.339844 Z M 31.734375 19.339844 " fill-opacity="1" fill-rule="nonzero"/></g><path fill="#80b141" d="M 17.933594 13.921875 C 17.695312 13.664062 17.390625 13.425781 16.996094 13.351562 C 17.585938 12.695312 17.660156 11.789062 17.367188 11.023438 C 17.179688 10.550781 16.84375 10.097656 16.363281 9.796875 C 15.875 9.496094 15.230469 9.355469 14.628906 9.484375 C 14.390625 9.53125 14.164062 9.625 13.972656 9.75 C 13.972656 9.773438 13.976562 9.796875 13.976562 9.816406 L 13.769531 9.902344 C 13.832031 9.847656 13.898438 9.796875 13.972656 9.75 C 13.902344 8.914062 12.9375 8.285156 11.9375 8.09375 C 11.558594 8.019531 11.164062 7.996094 10.792969 8.105469 C 10.183594 8.289062 9.78125 8.792969 9.660156 9.324219 C 9.550781 9.851562 9.683594 10.378906 9.855469 10.882812 C 8.875 10.519531 7.730469 10.195312 6.726562 10.570312 C 6.171875 10.785156 5.757812 11.183594 5.496094 11.636719 C 5.246094 12.089844 5.136719 12.585938 5.082031 13.082031 C 4.984375 14.050781 5.125 15.082031 5.835938 15.835938 C 6.53125 16.601562 7.90625 16.980469 8.929688 16.484375 C 8.035156 17.160156 7.851562 18.347656 8.417969 19.207031 C 8.976562 20.070312 10.195312 20.566406 11.382812 20.523438 C 11.777344 20.511719 12.167969 20.4375 12.515625 20.285156 C 13.421875 19.886719 13.867188 18.90625 13.507812 18.140625 C 14.425781 18.550781 15.429688 18.980469 16.472656 18.820312 C 17.804688 18.617188 18.71875 17.464844 18.816406 16.34375 C 18.894531 15.472656 18.578125 14.597656 17.933594 13.921875 Z M 17.933594 13.921875 " fill-opacity="1" fill-rule="evenodd"/><g clip-path="url(#7848721966)"><path fill="#383838" d="M 13.855469 10.066406 C 14.828125 9.550781 16.015625 9.636719 16.734375 10.527344 C 17.34375 11.292969 17.421875 12.382812 16.769531 13.136719 C 16.613281 13.308594 16.660156 13.597656 16.910156 13.664062 C 18.445312 14.0625 18.859375 16.226562 18.066406 17.410156 C 17.007812 18.992188 15.144531 18.496094 13.671875 17.851562 C 13.433594 17.746094 13.03125 17.925781 13.160156 18.238281 C 13.445312 18.90625 13.105469 19.597656 12.472656 19.929688 C 11.753906 20.308594 10.804688 20.253906 10.054688 19.996094 C 9.378906 19.769531 8.703125 19.304688 8.496094 18.59375 C 8.289062 17.875 8.59375 17.183594 9.160156 16.722656 C 9.488281 16.453125 9.074219 16.042969 8.746094 16.195312 C 7.9375 16.539062 6.9375 16.34375 6.269531 15.804688 C 5.574219 15.214844 5.355469 14.289062 5.386719 13.417969 C 5.421875 12.4375 5.757812 11.378906 6.726562 10.9375 C 7.699219 10.496094 8.820312 10.875 9.757812 11.207031 C 10 11.292969 10.25 11.023438 10.171875 10.800781 C 9.988281 10.261719 9.8125 9.644531 10.085938 9.109375 C 10.324219 8.613281 10.816406 8.375 11.363281 8.363281 C 12.210938 8.355469 13.5625 8.847656 13.652344 9.816406 C 13.695312 10.226562 14.347656 10.238281 14.304688 9.816406 C 14.164062 8.40625 12.472656 7.632812 11.164062 7.71875 C 10.511719 7.761719 9.921875 8.09375 9.585938 8.644531 C 9.136719 9.367188 9.277344 10.207031 9.527344 10.96875 L 9.945312 10.5625 C 8.753906 10.128906 7.328125 9.765625 6.160156 10.476562 C 5.082031 11.144531 4.710938 12.382812 4.699219 13.578125 C 4.6875 14.652344 5.070312 15.761719 5.976562 16.417969 C 6.878906 17.074219 8.078125 17.214844 9.105469 16.773438 C 8.960938 16.601562 8.832031 16.417969 8.691406 16.246094 C 7.9375 16.859375 7.578125 17.839844 7.851562 18.777344 C 8.121094 19.714844 8.984375 20.347656 9.890625 20.640625 C 10.890625 20.972656 12.199219 20.972656 13.082031 20.339844 C 13.800781 19.820312 14.183594 18.882812 13.84375 18.042969 C 13.671875 18.171875 13.507812 18.304688 13.332031 18.433594 C 14.347656 18.894531 15.425781 19.347656 16.570312 19.152344 C 17.484375 19.003906 18.292969 18.410156 18.75 17.625 C 19.644531 16.09375 18.980469 13.488281 17.082031 13.046875 C 17.125 13.21875 17.179688 13.402344 17.222656 13.574219 C 18.054688 12.5625 18.019531 11.140625 17.191406 10.128906 C 16.375 9.136719 14.574219 8.675781 13.648438 9.761719 C 13.507812 9.9375 13.671875 10.160156 13.855469 10.066406 Z M 13.855469 10.066406 " fill-opacity="1" fill-rule="nonzero"/></g><path fill="#4e843d" d="M 31.808594 12.316406 C 31.527344 11.292969 30.808594 10.410156 29.871094 9.902344 C 28.933594 9.398438 27.777344 9.300781 26.761719 9.625 C 26.949219 8.589844 27.070312 7.480469 26.632812 6.523438 C 26.152344 5.46875 25.0625 4.765625 23.917969 4.507812 C 22.851562 4.261719 21.683594 4.367188 20.734375 4.90625 C 19.777344 5.445312 19.078125 6.449219 19.011719 7.523438 C 18.597656 6.578125 17.585938 5.921875 16.539062 5.875 C 15.492188 5.84375 14.445312 6.414062 13.910156 7.308594 C 13.378906 8.195312 13.355469 9.351562 13.828125 10.273438 L 14.195312 10.875 C 14.0625 10.679688 13.945312 10.496094 13.835938 10.292969 C 13.832031 10.285156 13.828125 10.28125 13.828125 10.273438 L 13.824219 10.269531 C 12.734375 10.699219 11.785156 12.261719 11.9375 13.414062 C 12.082031 14.554688 12.910156 15.558594 13.945312 16.097656 C 14.96875 16.632812 16.191406 16.773438 17.355469 16.65625 C 17.136719 17.207031 16.941406 17.785156 16.984375 18.378906 C 17.039062 19.207031 17.550781 19.949219 18.21875 20.457031 C 18.882812 20.964844 19.675781 21.265625 20.484375 21.492188 C 21.257812 21.714844 22.109375 21.878906 22.828125 21.523438 C 23.667969 21.113281 24.039062 20.132812 24.214844 19.21875 C 24.890625 19.960938 25.652344 20.75 26.65625 20.855469 C 27.4375 20.941406 28.191406 20.585938 28.855469 20.1875 C 29.203125 19.984375 29.53125 19.769531 29.78125 19.457031 C 30.164062 18.972656 30.296875 18.304688 30.207031 17.691406 C 30.121094 17.074219 29.847656 16.503906 29.511719 15.976562 C 30.351562 15.988281 31.15625 15.460938 31.570312 14.738281 C 31.984375 14.015625 32.039062 13.125 31.808594 12.316406 Z M 31.808594 12.316406 " fill-opacity="1" fill-rule="evenodd"/><path fill="#383838" d="M 14.390625 10.765625 C 13.605469 9.367188 13.507812 7.546875 15.054688 6.597656 C 16.386719 5.78125 18.085938 6.308594 18.761719 7.695312 C 18.902344 8 19.308594 7.816406 19.339844 7.546875 C 19.527344 5.296875 22.011719 4.335938 23.996094 4.855469 C 24.878906 5.089844 25.75 5.609375 26.21875 6.40625 C 26.773438 7.363281 26.644531 8.515625 26.457031 9.550781 C 26.414062 9.777344 26.601562 10.011719 26.851562 9.9375 C 28.550781 9.441406 30.359375 10.132812 31.199219 11.683594 C 32.007812 13.167969 31.558594 15.613281 29.507812 15.667969 C 29.269531 15.675781 29.09375 15.9375 29.226562 16.152344 C 29.652344 16.839844 30.023438 17.636719 29.867188 18.464844 C 29.714844 19.285156 29.0625 19.726562 28.375 20.101562 C 27.65625 20.492188 26.839844 20.738281 26.054688 20.363281 C 25.421875 20.058594 24.941406 19.511719 24.484375 18.992188 C 24.308594 18.800781 23.9375 18.898438 23.882812 19.15625 C 23.730469 19.886719 23.492188 20.75 22.804688 21.167969 C 21.976562 21.675781 20.84375 21.277344 20.003906 20.996094 C 19.164062 20.707031 18.324219 20.273438 17.800781 19.53125 C 17.179688 18.636719 17.355469 17.734375 17.726562 16.785156 C 17.800781 16.582031 17.59375 16.324219 17.386719 16.34375 C 15.609375 16.507812 13.613281 16.097656 12.667969 14.460938 C 11.859375 13.082031 12.546875 11.230469 14.007812 10.574219 C 14.378906 10.410156 14.050781 9.882812 13.691406 10.035156 C 12.011719 10.753906 11.183594 12.886719 11.9375 14.515625 C 12.894531 16.558594 15.273438 17.226562 17.386719 17.042969 C 17.277344 16.894531 17.15625 16.753906 17.046875 16.601562 C 16.621094 17.691406 16.46875 18.800781 17.144531 19.832031 C 17.757812 20.78125 18.769531 21.328125 19.816406 21.683594 C 20.84375 22.039062 22.085938 22.386719 23.097656 21.835938 C 24.003906 21.339844 24.394531 20.304688 24.582031 19.359375 C 24.382812 19.414062 24.175781 19.464844 23.980469 19.519531 C 24.601562 20.1875 25.277344 20.878906 26.183594 21.148438 C 27.128906 21.425781 28.066406 21.082031 28.886719 20.609375 C 29.671875 20.15625 30.335938 19.585938 30.519531 18.667969 C 30.71875 17.667969 30.335938 16.699219 29.800781 15.859375 C 29.703125 16.019531 29.617188 16.183594 29.515625 16.34375 C 31.871094 16.277344 32.777344 13.695312 31.96875 11.777344 C 31.109375 9.742188 28.808594 8.730469 26.683594 9.355469 C 26.8125 9.484375 26.945312 9.613281 27.074219 9.742188 C 27.292969 8.515625 27.421875 7.167969 26.714844 6.046875 C 26.125 5.101562 25.082031 4.488281 24 4.238281 C 21.625 3.699219 18.933594 4.984375 18.703125 7.554688 C 18.898438 7.503906 19.085938 7.460938 19.28125 7.40625 C 18.464844 5.695312 16.273438 5.089844 14.671875 6.132812 C 13.875 6.652344 13.351562 7.457031 13.210938 8.394531 C 13.058594 9.417969 13.394531 10.269531 14.027344 11.066406 C 14.191406 11.238281 14.507812 10.980469 14.386719 10.765625 Z M 14.390625 10.765625 " fill-opacity="1" fill-rule="nonzero"/></svg>